<mxfile host="app.diagrams.net" modified="2024-04-01T23:49:27.144Z" agent="Mozilla/5.0 (Windows NT 10.0; Win64; x64) AppleWebKit/537.36 (KHTML, like Gecko) Chrome/121.0.0.0 Safari/537.36 OPR/107.0.0.0" etag="yFMB8B9DLfyiP8_gc9iK" version="24.1.0" type="device">
  <diagram name="Страница — 1" id="qb4soFFNQX_4Bm6eLItS">
    <mxGraphModel dx="1211" dy="1035" grid="1" gridSize="10" guides="1" tooltips="1" connect="1" arrows="1" fold="1" page="1" pageScale="1" pageWidth="827" pageHeight="1169" math="0" shadow="0">
      <root>
        <mxCell id="0" />
        <mxCell id="1" parent="0" />
        <mxCell id="IgqjgROG7rK6eYtnOTKO-24" style="edgeStyle=orthogonalEdgeStyle;rounded=0;orthogonalLoop=1;jettySize=auto;html=1;exitX=0.5;exitY=1;exitDx=0;exitDy=0;entryX=0.5;entryY=0;entryDx=0;entryDy=0;" edge="1" parent="1" source="IgqjgROG7rK6eYtnOTKO-1" target="IgqjgROG7rK6eYtnOTKO-2">
          <mxGeometry relative="1" as="geometry" />
        </mxCell>
        <mxCell id="IgqjgROG7rK6eYtnOTKO-1" value="&lt;font style=&quot;font-size: 18px;&quot;&gt;Начало&lt;/font&gt;" style="ellipse;whiteSpace=wrap;html=1;" vertex="1" parent="1">
          <mxGeometry x="550" y="40" width="130" height="60" as="geometry" />
        </mxCell>
        <mxCell id="IgqjgROG7rK6eYtnOTKO-49" style="edgeStyle=orthogonalEdgeStyle;rounded=0;orthogonalLoop=1;jettySize=auto;html=1;exitX=0.5;exitY=1;exitDx=0;exitDy=0;entryX=0.5;entryY=0;entryDx=0;entryDy=0;" edge="1" parent="1" source="IgqjgROG7rK6eYtnOTKO-2" target="IgqjgROG7rK6eYtnOTKO-3">
          <mxGeometry relative="1" as="geometry">
            <Array as="points">
              <mxPoint x="615" y="240" />
              <mxPoint x="70" y="240" />
            </Array>
          </mxGeometry>
        </mxCell>
        <mxCell id="IgqjgROG7rK6eYtnOTKO-50" style="edgeStyle=orthogonalEdgeStyle;rounded=0;orthogonalLoop=1;jettySize=auto;html=1;exitX=0.5;exitY=1;exitDx=0;exitDy=0;entryX=0.5;entryY=0;entryDx=0;entryDy=0;" edge="1" parent="1" source="IgqjgROG7rK6eYtnOTKO-2" target="IgqjgROG7rK6eYtnOTKO-4">
          <mxGeometry relative="1" as="geometry">
            <Array as="points">
              <mxPoint x="615" y="240" />
              <mxPoint x="230" y="240" />
            </Array>
          </mxGeometry>
        </mxCell>
        <mxCell id="IgqjgROG7rK6eYtnOTKO-51" style="edgeStyle=orthogonalEdgeStyle;rounded=0;orthogonalLoop=1;jettySize=auto;html=1;exitX=0.5;exitY=1;exitDx=0;exitDy=0;entryX=0.5;entryY=0;entryDx=0;entryDy=0;" edge="1" parent="1" source="IgqjgROG7rK6eYtnOTKO-2" target="IgqjgROG7rK6eYtnOTKO-7">
          <mxGeometry relative="1" as="geometry">
            <Array as="points">
              <mxPoint x="615" y="240" />
              <mxPoint x="390" y="240" />
            </Array>
          </mxGeometry>
        </mxCell>
        <mxCell id="IgqjgROG7rK6eYtnOTKO-52" style="edgeStyle=orthogonalEdgeStyle;rounded=0;orthogonalLoop=1;jettySize=auto;html=1;exitX=0.5;exitY=1;exitDx=0;exitDy=0;entryX=0.5;entryY=0;entryDx=0;entryDy=0;" edge="1" parent="1" source="IgqjgROG7rK6eYtnOTKO-2" target="IgqjgROG7rK6eYtnOTKO-8">
          <mxGeometry relative="1" as="geometry">
            <Array as="points">
              <mxPoint x="615" y="240" />
              <mxPoint x="540" y="240" />
            </Array>
          </mxGeometry>
        </mxCell>
        <mxCell id="IgqjgROG7rK6eYtnOTKO-53" style="edgeStyle=orthogonalEdgeStyle;rounded=0;orthogonalLoop=1;jettySize=auto;html=1;exitX=0.5;exitY=1;exitDx=0;exitDy=0;entryX=0.5;entryY=0;entryDx=0;entryDy=0;" edge="1" parent="1" source="IgqjgROG7rK6eYtnOTKO-2" target="IgqjgROG7rK6eYtnOTKO-9">
          <mxGeometry relative="1" as="geometry">
            <Array as="points">
              <mxPoint x="615" y="240" />
              <mxPoint x="690" y="240" />
            </Array>
          </mxGeometry>
        </mxCell>
        <mxCell id="IgqjgROG7rK6eYtnOTKO-54" style="edgeStyle=orthogonalEdgeStyle;rounded=0;orthogonalLoop=1;jettySize=auto;html=1;exitX=0.5;exitY=1;exitDx=0;exitDy=0;" edge="1" parent="1" source="IgqjgROG7rK6eYtnOTKO-2" target="IgqjgROG7rK6eYtnOTKO-10">
          <mxGeometry relative="1" as="geometry" />
        </mxCell>
        <mxCell id="IgqjgROG7rK6eYtnOTKO-55" style="edgeStyle=orthogonalEdgeStyle;rounded=0;orthogonalLoop=1;jettySize=auto;html=1;exitX=0.5;exitY=1;exitDx=0;exitDy=0;" edge="1" parent="1" source="IgqjgROG7rK6eYtnOTKO-2" target="IgqjgROG7rK6eYtnOTKO-11">
          <mxGeometry relative="1" as="geometry" />
        </mxCell>
        <mxCell id="IgqjgROG7rK6eYtnOTKO-56" style="edgeStyle=orthogonalEdgeStyle;rounded=0;orthogonalLoop=1;jettySize=auto;html=1;exitX=0.5;exitY=1;exitDx=0;exitDy=0;entryX=0.5;entryY=0;entryDx=0;entryDy=0;" edge="1" parent="1" source="IgqjgROG7rK6eYtnOTKO-2" target="IgqjgROG7rK6eYtnOTKO-12">
          <mxGeometry relative="1" as="geometry" />
        </mxCell>
        <mxCell id="IgqjgROG7rK6eYtnOTKO-2" value="&lt;font style=&quot;font-size: 18px;&quot;&gt;key&lt;/font&gt;" style="rhombus;whiteSpace=wrap;html=1;" vertex="1" parent="1">
          <mxGeometry x="555" y="130" width="120" height="60" as="geometry" />
        </mxCell>
        <mxCell id="IgqjgROG7rK6eYtnOTKO-18" style="edgeStyle=orthogonalEdgeStyle;rounded=0;orthogonalLoop=1;jettySize=auto;html=1;exitX=0.5;exitY=1;exitDx=0;exitDy=0;" edge="1" parent="1" source="IgqjgROG7rK6eYtnOTKO-3" target="IgqjgROG7rK6eYtnOTKO-5">
          <mxGeometry relative="1" as="geometry" />
        </mxCell>
        <mxCell id="IgqjgROG7rK6eYtnOTKO-37" style="edgeStyle=orthogonalEdgeStyle;rounded=0;orthogonalLoop=1;jettySize=auto;html=1;exitX=1;exitY=0.5;exitDx=0;exitDy=0;entryX=0.5;entryY=0;entryDx=0;entryDy=0;" edge="1" parent="1" source="IgqjgROG7rK6eYtnOTKO-3" target="IgqjgROG7rK6eYtnOTKO-15">
          <mxGeometry relative="1" as="geometry">
            <Array as="points">
              <mxPoint x="150" y="320" />
              <mxPoint x="150" y="510" />
              <mxPoint x="675" y="510" />
            </Array>
          </mxGeometry>
        </mxCell>
        <mxCell id="IgqjgROG7rK6eYtnOTKO-3" value="&lt;font style=&quot;font-size: 14px;&quot;&gt;n div 3 &amp;gt; 3&lt;/font&gt;" style="rhombus;whiteSpace=wrap;html=1;" vertex="1" parent="1">
          <mxGeometry x="10" y="280" width="120" height="80" as="geometry" />
        </mxCell>
        <mxCell id="IgqjgROG7rK6eYtnOTKO-19" style="edgeStyle=orthogonalEdgeStyle;rounded=0;orthogonalLoop=1;jettySize=auto;html=1;exitX=0.5;exitY=1;exitDx=0;exitDy=0;entryX=0.5;entryY=0;entryDx=0;entryDy=0;" edge="1" parent="1" source="IgqjgROG7rK6eYtnOTKO-4" target="IgqjgROG7rK6eYtnOTKO-6">
          <mxGeometry relative="1" as="geometry" />
        </mxCell>
        <mxCell id="IgqjgROG7rK6eYtnOTKO-38" style="edgeStyle=orthogonalEdgeStyle;rounded=0;orthogonalLoop=1;jettySize=auto;html=1;exitX=1;exitY=0.5;exitDx=0;exitDy=0;entryX=0.5;entryY=0;entryDx=0;entryDy=0;" edge="1" parent="1" source="IgqjgROG7rK6eYtnOTKO-4" target="IgqjgROG7rK6eYtnOTKO-15">
          <mxGeometry relative="1" as="geometry">
            <Array as="points">
              <mxPoint x="310" y="320" />
              <mxPoint x="310" y="510" />
              <mxPoint x="675" y="510" />
            </Array>
          </mxGeometry>
        </mxCell>
        <mxCell id="IgqjgROG7rK6eYtnOTKO-4" value="&lt;font style=&quot;font-size: 14px;&quot;&gt;n * 3 &amp;lt; x2 - x1&lt;/font&gt;" style="rhombus;whiteSpace=wrap;html=1;" vertex="1" parent="1">
          <mxGeometry x="170" y="280" width="120" height="80" as="geometry" />
        </mxCell>
        <mxCell id="IgqjgROG7rK6eYtnOTKO-25" style="edgeStyle=orthogonalEdgeStyle;rounded=0;orthogonalLoop=1;jettySize=auto;html=1;exitX=0.5;exitY=1;exitDx=0;exitDy=0;entryX=0.5;entryY=0;entryDx=0;entryDy=0;" edge="1" parent="1" source="IgqjgROG7rK6eYtnOTKO-5" target="IgqjgROG7rK6eYtnOTKO-15">
          <mxGeometry relative="1" as="geometry" />
        </mxCell>
        <mxCell id="IgqjgROG7rK6eYtnOTKO-5" value="&lt;font style=&quot;font-size: 16px;&quot;&gt;n := n div 3&lt;/font&gt;" style="rounded=0;whiteSpace=wrap;html=1;" vertex="1" parent="1">
          <mxGeometry x="10" y="400" width="120" height="60" as="geometry" />
        </mxCell>
        <mxCell id="IgqjgROG7rK6eYtnOTKO-27" style="edgeStyle=orthogonalEdgeStyle;rounded=0;orthogonalLoop=1;jettySize=auto;html=1;exitX=0.5;exitY=1;exitDx=0;exitDy=0;entryX=0.5;entryY=0;entryDx=0;entryDy=0;" edge="1" parent="1" source="IgqjgROG7rK6eYtnOTKO-6" target="IgqjgROG7rK6eYtnOTKO-15">
          <mxGeometry relative="1" as="geometry" />
        </mxCell>
        <mxCell id="IgqjgROG7rK6eYtnOTKO-6" value="&lt;font style=&quot;font-size: 16px;&quot;&gt;n := n * 3&lt;/font&gt;" style="rounded=0;whiteSpace=wrap;html=1;" vertex="1" parent="1">
          <mxGeometry x="170" y="400" width="120" height="60" as="geometry" />
        </mxCell>
        <mxCell id="IgqjgROG7rK6eYtnOTKO-28" style="edgeStyle=orthogonalEdgeStyle;rounded=0;orthogonalLoop=1;jettySize=auto;html=1;exitX=0.5;exitY=1;exitDx=0;exitDy=0;entryX=0.5;entryY=0;entryDx=0;entryDy=0;" edge="1" parent="1" source="IgqjgROG7rK6eYtnOTKO-7" target="IgqjgROG7rK6eYtnOTKO-15">
          <mxGeometry relative="1" as="geometry">
            <Array as="points">
              <mxPoint x="390" y="510" />
              <mxPoint x="675" y="510" />
            </Array>
          </mxGeometry>
        </mxCell>
        <mxCell id="IgqjgROG7rK6eYtnOTKO-7" value="&lt;font style=&quot;font-size: 14px;&quot;&gt;x1 -= 10;&lt;/font&gt;&lt;div&gt;&lt;span style=&quot;background-color: initial;&quot;&gt;&lt;font size=&quot;3&quot;&gt;y1 += 10;&lt;/font&gt;&lt;/span&gt;&lt;/div&gt;&lt;div&gt;&lt;span style=&quot;background-color: initial;&quot;&gt;&lt;font size=&quot;3&quot;&gt;x2 += 10;&lt;/font&gt;&lt;/span&gt;&lt;/div&gt;&lt;div&gt;&lt;span style=&quot;background-color: initial;&quot;&gt;&lt;font size=&quot;3&quot;&gt;y2 -= 10&lt;/font&gt;&lt;/span&gt;&lt;/div&gt;" style="rounded=0;whiteSpace=wrap;html=1;" vertex="1" parent="1">
          <mxGeometry x="330" y="280" width="120" height="90" as="geometry" />
        </mxCell>
        <mxCell id="IgqjgROG7rK6eYtnOTKO-29" style="edgeStyle=orthogonalEdgeStyle;rounded=0;orthogonalLoop=1;jettySize=auto;html=1;exitX=0.5;exitY=1;exitDx=0;exitDy=0;entryX=0.5;entryY=0;entryDx=0;entryDy=0;" edge="1" parent="1" source="IgqjgROG7rK6eYtnOTKO-8" target="IgqjgROG7rK6eYtnOTKO-15">
          <mxGeometry relative="1" as="geometry">
            <Array as="points">
              <mxPoint x="540" y="510" />
              <mxPoint x="675" y="510" />
            </Array>
          </mxGeometry>
        </mxCell>
        <mxCell id="IgqjgROG7rK6eYtnOTKO-8" value="&lt;font style=&quot;font-size: 14px;&quot;&gt;x1 += 10;&lt;/font&gt;&lt;div&gt;&lt;span style=&quot;background-color: initial;&quot;&gt;&lt;font size=&quot;3&quot;&gt;y1 -= 10;&lt;/font&gt;&lt;/span&gt;&lt;/div&gt;&lt;div&gt;&lt;span style=&quot;background-color: initial;&quot;&gt;&lt;font size=&quot;3&quot;&gt;x2 -= 10;&lt;/font&gt;&lt;/span&gt;&lt;/div&gt;&lt;div&gt;&lt;span style=&quot;background-color: initial;&quot;&gt;&lt;font size=&quot;3&quot;&gt;y2 += 10&lt;/font&gt;&lt;/span&gt;&lt;/div&gt;" style="rounded=0;whiteSpace=wrap;html=1;" vertex="1" parent="1">
          <mxGeometry x="480" y="280" width="120" height="90" as="geometry" />
        </mxCell>
        <mxCell id="IgqjgROG7rK6eYtnOTKO-33" style="edgeStyle=orthogonalEdgeStyle;rounded=0;orthogonalLoop=1;jettySize=auto;html=1;exitX=0.5;exitY=1;exitDx=0;exitDy=0;entryX=0.5;entryY=0;entryDx=0;entryDy=0;" edge="1" parent="1" source="IgqjgROG7rK6eYtnOTKO-9" target="IgqjgROG7rK6eYtnOTKO-15">
          <mxGeometry relative="1" as="geometry">
            <Array as="points">
              <mxPoint x="690" y="510" />
              <mxPoint x="675" y="510" />
            </Array>
          </mxGeometry>
        </mxCell>
        <mxCell id="IgqjgROG7rK6eYtnOTKO-9" value="&lt;font style=&quot;font-size: 14px;&quot;&gt;x1 -= 10;&lt;/font&gt;&lt;div&gt;&lt;font size=&quot;3&quot;&gt;x2 -= 10&lt;/font&gt;&lt;/div&gt;" style="rounded=0;whiteSpace=wrap;html=1;" vertex="1" parent="1">
          <mxGeometry x="630" y="290" width="120" height="60" as="geometry" />
        </mxCell>
        <mxCell id="IgqjgROG7rK6eYtnOTKO-34" style="edgeStyle=orthogonalEdgeStyle;rounded=0;orthogonalLoop=1;jettySize=auto;html=1;exitX=0.5;exitY=1;exitDx=0;exitDy=0;entryX=0.5;entryY=0;entryDx=0;entryDy=0;" edge="1" parent="1" source="IgqjgROG7rK6eYtnOTKO-10" target="IgqjgROG7rK6eYtnOTKO-15">
          <mxGeometry relative="1" as="geometry">
            <Array as="points">
              <mxPoint x="840" y="510" />
              <mxPoint x="675" y="510" />
            </Array>
          </mxGeometry>
        </mxCell>
        <mxCell id="IgqjgROG7rK6eYtnOTKO-10" value="&lt;font style=&quot;font-size: 14px;&quot;&gt;x1 += 10;&lt;/font&gt;&lt;div&gt;&lt;font size=&quot;3&quot;&gt;x2 += 10&lt;/font&gt;&lt;/div&gt;" style="rounded=0;whiteSpace=wrap;html=1;" vertex="1" parent="1">
          <mxGeometry x="780" y="290" width="120" height="60" as="geometry" />
        </mxCell>
        <mxCell id="IgqjgROG7rK6eYtnOTKO-35" style="edgeStyle=orthogonalEdgeStyle;rounded=0;orthogonalLoop=1;jettySize=auto;html=1;exitX=0.5;exitY=1;exitDx=0;exitDy=0;entryX=0.5;entryY=0;entryDx=0;entryDy=0;" edge="1" parent="1" source="IgqjgROG7rK6eYtnOTKO-11" target="IgqjgROG7rK6eYtnOTKO-15">
          <mxGeometry relative="1" as="geometry">
            <Array as="points">
              <mxPoint x="990" y="510" />
              <mxPoint x="675" y="510" />
            </Array>
          </mxGeometry>
        </mxCell>
        <mxCell id="IgqjgROG7rK6eYtnOTKO-11" value="&lt;font style=&quot;font-size: 14px;&quot;&gt;y1 -= 10;&lt;/font&gt;&lt;div&gt;&lt;font size=&quot;3&quot;&gt;y2 -= 10&lt;/font&gt;&lt;/div&gt;" style="rounded=0;whiteSpace=wrap;html=1;" vertex="1" parent="1">
          <mxGeometry x="930" y="290" width="120" height="60" as="geometry" />
        </mxCell>
        <mxCell id="IgqjgROG7rK6eYtnOTKO-31" style="edgeStyle=orthogonalEdgeStyle;rounded=0;orthogonalLoop=1;jettySize=auto;html=1;exitX=0.5;exitY=1;exitDx=0;exitDy=0;entryX=0.5;entryY=0;entryDx=0;entryDy=0;" edge="1" parent="1" source="IgqjgROG7rK6eYtnOTKO-12" target="IgqjgROG7rK6eYtnOTKO-15">
          <mxGeometry relative="1" as="geometry">
            <Array as="points">
              <mxPoint x="1140" y="510" />
              <mxPoint x="675" y="510" />
            </Array>
          </mxGeometry>
        </mxCell>
        <mxCell id="IgqjgROG7rK6eYtnOTKO-12" value="&lt;font style=&quot;font-size: 14px;&quot;&gt;y1 += 10;&lt;/font&gt;&lt;div&gt;&lt;font size=&quot;3&quot;&gt;y2 += 10&lt;/font&gt;&lt;/div&gt;" style="rounded=0;whiteSpace=wrap;html=1;" vertex="1" parent="1">
          <mxGeometry x="1080" y="290" width="120" height="60" as="geometry" />
        </mxCell>
        <mxCell id="IgqjgROG7rK6eYtnOTKO-21" style="edgeStyle=orthogonalEdgeStyle;rounded=0;orthogonalLoop=1;jettySize=auto;html=1;exitX=0.5;exitY=1;exitDx=0;exitDy=0;entryX=0.5;entryY=0;entryDx=0;entryDy=0;" edge="1" parent="1" source="IgqjgROG7rK6eYtnOTKO-13" target="IgqjgROG7rK6eYtnOTKO-14">
          <mxGeometry relative="1" as="geometry" />
        </mxCell>
        <mxCell id="IgqjgROG7rK6eYtnOTKO-13" value="&lt;font style=&quot;font-size: 14px;&quot;&gt;Rectangle(Round(x1), Round(y1), Round(x2), Round(y2))&lt;/font&gt;" style="rounded=0;whiteSpace=wrap;html=1;" vertex="1" parent="1">
          <mxGeometry x="600" y="650" width="150" height="80" as="geometry" />
        </mxCell>
        <mxCell id="IgqjgROG7rK6eYtnOTKO-22" style="edgeStyle=orthogonalEdgeStyle;rounded=0;orthogonalLoop=1;jettySize=auto;html=1;exitX=0.5;exitY=1;exitDx=0;exitDy=0;entryX=0.5;entryY=0;entryDx=0;entryDy=0;" edge="1" parent="1" source="IgqjgROG7rK6eYtnOTKO-14" target="IgqjgROG7rK6eYtnOTKO-16">
          <mxGeometry relative="1" as="geometry" />
        </mxCell>
        <mxCell id="IgqjgROG7rK6eYtnOTKO-14" value="&lt;font style=&quot;font-size: 14px;&quot;&gt;kover(x1, y1, x2, y2, n)&lt;/font&gt;" style="rounded=0;whiteSpace=wrap;html=1;" vertex="1" parent="1">
          <mxGeometry x="600" y="760" width="150" height="60" as="geometry" />
        </mxCell>
        <mxCell id="IgqjgROG7rK6eYtnOTKO-20" style="edgeStyle=orthogonalEdgeStyle;rounded=0;orthogonalLoop=1;jettySize=auto;html=1;exitX=0.5;exitY=1;exitDx=0;exitDy=0;entryX=0.5;entryY=0;entryDx=0;entryDy=0;" edge="1" parent="1" source="IgqjgROG7rK6eYtnOTKO-15" target="IgqjgROG7rK6eYtnOTKO-13">
          <mxGeometry relative="1" as="geometry" />
        </mxCell>
        <mxCell id="IgqjgROG7rK6eYtnOTKO-15" value="&lt;font style=&quot;font-size: 16px;&quot;&gt;Window.Clear&lt;/font&gt;" style="rounded=0;whiteSpace=wrap;html=1;" vertex="1" parent="1">
          <mxGeometry x="600" y="560" width="150" height="60" as="geometry" />
        </mxCell>
        <mxCell id="IgqjgROG7rK6eYtnOTKO-23" style="edgeStyle=orthogonalEdgeStyle;rounded=0;orthogonalLoop=1;jettySize=auto;html=1;exitX=0.5;exitY=1;exitDx=0;exitDy=0;entryX=0.5;entryY=0;entryDx=0;entryDy=0;" edge="1" parent="1" source="IgqjgROG7rK6eYtnOTKO-16" target="IgqjgROG7rK6eYtnOTKO-17">
          <mxGeometry relative="1" as="geometry" />
        </mxCell>
        <mxCell id="IgqjgROG7rK6eYtnOTKO-16" value="&lt;font style=&quot;font-size: 18px;&quot;&gt;ReDraw&lt;/font&gt;" style="rounded=0;whiteSpace=wrap;html=1;" vertex="1" parent="1">
          <mxGeometry x="600" y="850" width="150" height="60" as="geometry" />
        </mxCell>
        <mxCell id="IgqjgROG7rK6eYtnOTKO-17" value="&lt;font style=&quot;font-size: 18px;&quot;&gt;Конец&lt;/font&gt;" style="ellipse;whiteSpace=wrap;html=1;" vertex="1" parent="1">
          <mxGeometry x="600" y="940" width="150" height="60" as="geometry" />
        </mxCell>
        <mxCell id="IgqjgROG7rK6eYtnOTKO-57" value="Нет" style="text;html=1;align=center;verticalAlign=middle;whiteSpace=wrap;rounded=0;" vertex="1" parent="1">
          <mxGeometry x="110" y="290" width="60" height="30" as="geometry" />
        </mxCell>
        <mxCell id="IgqjgROG7rK6eYtnOTKO-58" value="Нет" style="text;html=1;align=center;verticalAlign=middle;whiteSpace=wrap;rounded=0;" vertex="1" parent="1">
          <mxGeometry x="270" y="290" width="60" height="30" as="geometry" />
        </mxCell>
        <mxCell id="IgqjgROG7rK6eYtnOTKO-59" value="Да" style="text;html=1;align=center;verticalAlign=middle;whiteSpace=wrap;rounded=0;" vertex="1" parent="1">
          <mxGeometry x="60" y="360" width="60" height="30" as="geometry" />
        </mxCell>
        <mxCell id="IgqjgROG7rK6eYtnOTKO-60" value="Да" style="text;html=1;align=center;verticalAlign=middle;whiteSpace=wrap;rounded=0;" vertex="1" parent="1">
          <mxGeometry x="220" y="360" width="60" height="30" as="geometry" />
        </mxCell>
        <mxCell id="IgqjgROG7rK6eYtnOTKO-61" value="VK_W" style="text;html=1;align=center;verticalAlign=middle;whiteSpace=wrap;rounded=0;" vertex="1" parent="1">
          <mxGeometry x="70" y="250" width="60" height="30" as="geometry" />
        </mxCell>
        <mxCell id="IgqjgROG7rK6eYtnOTKO-62" value="VK_S" style="text;html=1;align=center;verticalAlign=middle;whiteSpace=wrap;rounded=0;" vertex="1" parent="1">
          <mxGeometry x="230" y="250" width="60" height="30" as="geometry" />
        </mxCell>
        <mxCell id="IgqjgROG7rK6eYtnOTKO-63" value="VK_Z" style="text;html=1;align=center;verticalAlign=middle;whiteSpace=wrap;rounded=0;" vertex="1" parent="1">
          <mxGeometry x="390" y="250" width="60" height="30" as="geometry" />
        </mxCell>
        <mxCell id="IgqjgROG7rK6eYtnOTKO-64" value="VK_X" style="text;html=1;align=center;verticalAlign=middle;whiteSpace=wrap;rounded=0;" vertex="1" parent="1">
          <mxGeometry x="540" y="250" width="60" height="30" as="geometry" />
        </mxCell>
        <mxCell id="IgqjgROG7rK6eYtnOTKO-65" value="VK_Left" style="text;html=1;align=center;verticalAlign=middle;whiteSpace=wrap;rounded=0;" vertex="1" parent="1">
          <mxGeometry x="700" y="250" width="60" height="30" as="geometry" />
        </mxCell>
        <mxCell id="IgqjgROG7rK6eYtnOTKO-66" value="VK_Right" style="text;html=1;align=center;verticalAlign=middle;whiteSpace=wrap;rounded=0;" vertex="1" parent="1">
          <mxGeometry x="850" y="250" width="60" height="30" as="geometry" />
        </mxCell>
        <mxCell id="IgqjgROG7rK6eYtnOTKO-67" value="VK_Up" style="text;html=1;align=center;verticalAlign=middle;whiteSpace=wrap;rounded=0;" vertex="1" parent="1">
          <mxGeometry x="990" y="250" width="60" height="30" as="geometry" />
        </mxCell>
        <mxCell id="IgqjgROG7rK6eYtnOTKO-68" value="VK_Down" style="text;html=1;align=center;verticalAlign=middle;whiteSpace=wrap;rounded=0;" vertex="1" parent="1">
          <mxGeometry x="1150" y="250" width="60" height="30" as="geometry" />
        </mxCell>
      </root>
    </mxGraphModel>
  </diagram>
</mxfile>
